<?xml version="1.0" encoding="UTF-8"?>
<svg version="1.1" xmlns="http://www.w3.org/2000/svg" width="100" height="100">
<path d="M0 0 C33 0 66 0 100 0 C100 33 100 66 100 100 C67 100 34 100 0 100 C0 67 0 34 0 0 Z " fill="#0082C8" transform="translate(0,0)"/>
<path d="M0 0 C8.25 0 16.5 0 25 0 C25 1.65 25 3.3 25 5 C26.65 5 28.3 5 30 5 C30.02715383 6.74991334 30.04646551 8.49994945 30.0625 10.25 C30.07410156 11.22453125 30.08570312 12.1990625 30.09765625 13.203125 C30.01195577 15.65758678 29.70706066 17.66168914 29 20 C27.68 20 26.36 20 25 20 C25 23.3 25 26.6 25 30 C26.32 30 27.64 30 29 30 C29 34.95 29 39.9 29 45 C26.03 45 23.06 45 20 45 C20 40.05 20 35.1 20 30 C18.35 30 16.7 30 15 30 C15 28.35 15 26.7 15 25 C13.35 25 11.7 25 10 25 C10 31.6 10 38.2 10 45 C6.7 45 3.4 45 0 45 C0 30.15 0 15.3 0 0 Z " fill="#FFFFFF" transform="translate(29,15)"/>
<path d="M0 0 C9.9 0 19.8 0 30 0 C30 1.65 30 3.3 30 5 C26.7 5 23.4 5 20 5 C20 18.2 20 31.4 20 45 C16.7 45 13.4 45 10 45 C10 31.8 10 18.6 10 5 C6.7 5 3.4 5 0 5 C0 3.35 0 1.7 0 0 Z " fill="#FFFFFF" transform="translate(60,33)"/>
<path d="M0 0 C3.3 0 6.6 0 10 0 C10 4.95 10 9.9 10 15 C6.7 15 3.4 15 0 15 C0 10.05 0 5.1 0 0 Z " fill="#0082C8" transform="translate(39,20)"/>
</svg>
